<svg id="Layer_1" data-name="Layer 1" xmlns="http://www.w3.org/2000/svg" viewBox="0 0 1000 1000"><defs><style>.cls-1{fill:#4d148c;}</style></defs><polygon class="cls-1" points="702.95 355.75 781.25 355.75 546.68 119.87 255.79 413.07 294.94 452.72 548.67 199.49 702.95 355.75"/><polygon class="cls-1" points="453.47 707.01 413.57 745.66 98.37 432.07 391.08 141.34 428.08 180.32 177.66 432.44 453.47 707.01"/><polygon class="cls-1" points="561.77 655.19 412.89 801.84 157.92 554.05 119.27 592.96 411.65 880.13 640.94 655.19 561.77 655.19"/><polygon class="cls-1" points="695.71 655.19 528.85 821.4 568.74 860.8 774.75 655.19 695.71 655.19"/><path class="cls-1" d="M498,430.56a648.77,648.77,0,0,0-88.41,20.64V376.55h45.7v23.87l28.25-23.87h67.88l-57.5,48.89Q495.91,428,498,430.56Z"/><path class="cls-1" d="M727.51,411l-21.4,14.13q-13.77-1.32-28-2.25c-6.64-5.21-12.27-6-16.3-6a28.33,28.33,0,0,0-15.39,4.44l-53.34.08c8.55-27.17,36.12-47.12,68.73-47.12,23.36,0,43.5,10,59.86,29.66Z"/><path class="cls-1" d="M886.46,376.56v42.75H858.64v31.94c-14-3.43-29.32-6.92-45.86-10.25V419.31H785V376.56Z"/><path class="cls-1" d="M858.64,458.94c-14.25-3.85-29.66-7-45.86-10.33a1024.11,1024.11,0,0,0-112.91-16.52q-8.1-.72-16.33-1.31h0q-20.82-1.45-42.38-2h0c-16.2-.39-32.67-.33-49.34.27a745,745,0,0,0-90.44,8.58A646.32,646.32,0,0,0,409.58,459a574.85,574.85,0,0,0-93.21,38.21c3.51-1.55,35.23-15.16,93.21-27.45V505h45.7V460.73l3.8-3.27.18-.16,2.45,3.09,3.44,4.33L497.06,505h57.66L544.3,491.79c-7.49-9.5-16.79-21.24-26.34-33.26l-3.53-4.45c23.48-2.17,49-3.73,76.4-4.36.2,1.58.47,3.16.8,4.71,6.32,30,35.39,52.82,70.19,52.82,23.16,0,43.08-9.82,59.18-29.2l5.82-7L706,457.22,698.06,452c35.87,2.26,74.13,6.12,114.72,12V505h45.86V471.31c38.54,6.76,57.48,11.74,99.81,22.42C957.11,493.16,931.21,478.55,858.64,458.94Zm-173.56-6.87q-1.74,2.06-3.4,3.7c-7.73,7.6-14.32,8.73-19.86,8.73-9.23,0-17.18-4-21.72-10.17a20.22,20.22,0,0,1-2.65-4.76q23.35.38,48.31,1.68Z"/><path class="cls-1" d="M414.91,544.51l-5.33-3.92,7.11-8.56h10.65v6.24H417l10.3,6.24v18.72h3.56v6.24h-16Z"/><path class="cls-1" d="M461.09,554.49h12.44v8.74q0,6.24-8.89,6.24H446.88q-8.88,0-8.88-6.24V552.77l12.44-2.54q10.65-2.55,10.65-7v-5H450.44V542h1.77v5h-8.88q-5.32,0-5.33-2.5v-6.24q0-6.24,8.88-6.24h17.76q8.89,0,8.89,6.24v5q-.75,7.35-20.43,11.61l-2.66.65v7.71h10.65Z"/><path class="cls-1" d="M499.6,542h11.23q8.88,0,8.88,6.24v15h10.66V544.51L525,540.59l7.1-8.56H542.8v6.24H532.5l10.3,6.24v18.72q0,6.24-8.88,6.24H516.16q-8.89,0-8.89-6.24v-15H496.62v15h3.55v6.24h-16V548.26q0-4.95,5.55-6l-5.55-3.69,5.33-6.57h24.87v6.24h-21Z"/><path class="cls-1" d="M542.8,572v15H532.14V572Z"/><path class="cls-1" d="M510.83,525.79a6.09,6.09,0,0,1,3.2-5.61c2.13-1.25,5.32-1.87,9.59-1.87a27.4,27.4,0,0,1,12.79,3.09v-4.34h6.39v11.23h-32Zm12.79-2.49a6.56,6.56,0,0,0-3.2.62,2,2,0,0,0-1.07,1.87H536a13.77,13.77,0,0,0-5-1.87A38.79,38.79,0,0,0,523.62,523.3Z"/><path class="cls-1" d="M573.67,544.51l-5.33-3.92,7.11-8.56H586.1v6.24H575.8l10.3,6.24v18.72h3.56v6.24h-16Z"/><path class="cls-1" d="M596.76,544.51l-5.33-3.92,7.11-8.56H609.2v6.24H598.89l10.31,6.24V582h10.65V572h12.44v10q0,5-8.88,5H605.64q-8.88,0-8.88-5Z"/><path class="cls-1" d="M619.85,538.27V532h35.53v6.24Zm0,10q0-6.24,8.88-6.24H646.5q8.88,0,8.88,6.24v21.21H642.94V548.26H632.29v15h3.55v6.24h-16Z"/><path class="cls-1" d="M678.47,544.51q0,3.42,10.66,5.47l12.43,2v17.45H689.13l-5.33-3.64-5.33,3.64H666v-15h12.43v7.67l5.33-3.65,5.33,3.65v-7.07l-2.67-.47Q666,550.67,666,544.51v-6.24q0-6.24,8.88-6.24h17.76q8.88,0,8.88,6.24V547H687.35v-5h1.78v-3.75H678.47Z"/><path class="cls-1" d="M727.64,542h11.22q8.88,0,8.88,6.24v15H758.4V544.51l-5.33-3.92,7.11-8.56h10.66v6.24H760.53l10.31,6.24v18.72q0,6.24-8.89,6.24H744.19q-8.88,0-8.88-6.24v-15H724.65v15h3.56v6.24h-16V548.26q0-4.95,5.54-6l-5.54-3.69,5.33-6.57h24.87v6.24h-21Z"/><path class="cls-1" d="M758.4,574.46h-4V572h14.67v3q0,3-8.17,3.66l-13.15.7v3l21.32-2.17v4.06c0,1.84-1.73,2.75-5.19,2.75h-9.23l2.34-1.37v-1.38l-7.85,1.38h-12v-8.16l15.09-1Q758.41,576,758.4,574.46Z"/><path class="cls-1" d="M738.86,525.79a6.1,6.1,0,0,1,3.2-5.61q3.2-1.87,9.59-1.87a27.32,27.32,0,0,1,12.79,3.09v-4.34h6.39v11.23h-32Zm12.79-2.49a6.56,6.56,0,0,0-3.2.62,2,2,0,0,0-1.06,1.87H764a13.77,13.77,0,0,0-5-1.87A38.71,38.71,0,0,0,751.65,523.3Z"/><path class="cls-1" d="M781.49,538.27V532H817v6.24Zm23.09,31.2V548.26H793.93v21.21H781.49V548.26q0-6.24,8.88-6.24h17.77q8.88,0,8.88,6.24v21.21Z"/><path class="cls-1" d="M843.09,542h11.23q8.88,0,8.88,6.24v15h10.66V544.51l-5.33-3.92,7.1-8.56h10.66v6.24H876l10.3,6.24v18.72q0,6.24-8.88,6.24H859.65q-8.88,0-8.88-6.24v-15H840.11v15h3.55v6.24h-16V548.26c0-3.3,1.84-5.29,5.54-6l-5.54-3.69L833,532h24.87v6.24h-21Z"/><path class="cls-1" d="M863.56,525.54h5.18v2.75h-16.2V520.8h15.53c3.64,0,5.47-1.25,5.47-3.74h11v3.74q0,2.51-10,2.5h-11Z"/><path class="cls-1" d="M457.32,615.7c-1.39,1-2.85,2.13-4.53,3.35v11.78h-10V598.57h10v9.83l13.42-9.83h14.52l-15.86,11.69c5.7,6.21,13.6,14.81,18.82,20.57H471.15Z"/><path class="cls-1" d="M514.19,619l8,4.57a24,24,0,0,1-18,7.75c-11.85,0-21.55-7.57-21.55-16.81s9.7-16.76,21.55-16.76a24.45,24.45,0,0,1,18.24,7.88l-8.07,4.62c-3.25-3.39-6.56-4.75-10.17-4.75-6.44,0-11.56,4-11.56,9s5.12,9,11.56,9C507.75,623.49,510.94,622.31,514.19,619Z"/><path class="cls-1" d="M547.37,606.36H537.9v-7.79h29v7.79h-9.47v24.47h-10Z"/><path class="cls-1" d="M608.07,630.83h-12l-13.71-14h-.93v14h-9.82V598.57h15.16a13,13,0,0,1,8,2.58A8.24,8.24,0,0,1,593,615.33Zm-26.66-21.66h5.34a1.45,1.45,0,0,0,0-2.9h-5.34Z"/><path class="cls-1" d="M635.09,623.49H623.47l-3.66,7.34H609.12L625,598.57h8.48l16,32.26H638.63Zm-5.81-12.42-2,4.72h3.9Z"/><path class="cls-1" d="M664,613.57v17.26H653.91V598.57h9.24L678,615.74V598.57h10.11v32.26h-9.18Z"/><path class="cls-1" d="M705.56,630.74c-4.19-.68-8-2.18-13-5.49l6.62-5.93c3.66,2.49,5.81,3.44,8.37,3.81a13.23,13.23,0,0,0,2.21.22,8.44,8.44,0,0,0,3-.5c.69-.27,1.91-.86,1.91-2.08s-3-2-5.63-2.45c-1.16-.18-6.86-1.13-9.18-2.22-3.95-1.81-6-4.57-6-8a8,8,0,0,1,2.15-5.25,13.26,13.26,0,0,1,5.34-3.35l-.06,0a21,21,0,0,1,7.09-1.22,24.42,24.42,0,0,1,3.08.18c3.72.5,7.14,1.68,11.91,4.76l-6.39,6c-4.3-2.77-6.51-3.17-8.72-3.17a7.34,7.34,0,0,0-2.67.45c-1.1.36-1.68,1-1.68,1.58,0,1.23,2.09,1.82,5.46,2.36.35.09.75.09,1.16.18a37.32,37.32,0,0,1,7.84,2h-.06c4.19,1.81,6.39,4.67,6.39,8.2a8.12,8.12,0,0,1-2.2,5.66,14.42,14.42,0,0,1-5.52,3.45,18.85,18.85,0,0,1-7.32,1.22A25.51,25.51,0,0,1,705.56,630.74Z"/><path class="cls-1" d="M737.62,606.36h-9.47v-7.79h29v7.79h-9.47v24.47h-10Z"/><path class="cls-1" d="M765.62,598.57h10.11v32.26H765.62Z"/><path class="cls-1" d="M815.18,619l8,4.57a24,24,0,0,1-18,7.75c-11.85,0-21.56-7.57-21.56-16.81s9.71-16.76,21.56-16.76a24.48,24.48,0,0,1,18.24,7.88l-8.08,4.62c-3.25-3.39-6.56-4.75-10.16-4.75-6.45,0-11.56,4-11.56,9s5.11,9,11.56,9C808.73,623.49,811.92,622.31,815.18,619Z"/><path class="cls-1" d="M839.34,630.74c-4.18-.68-8-2.18-13-5.49l6.62-5.93c3.66,2.49,5.81,3.44,8.37,3.81a13.22,13.22,0,0,0,2.2.22,8.46,8.46,0,0,0,3-.5c.69-.27,1.91-.86,1.91-2.08s-3-2-5.63-2.45c-1.16-.18-6.86-1.13-9.18-2.22-4-1.81-6-4.57-6-8a8,8,0,0,1,2.15-5.25,13.26,13.26,0,0,1,5.34-3.35l-.06,0a21,21,0,0,1,7.09-1.22,24.42,24.42,0,0,1,3.08.18c3.72.5,7.14,1.68,11.91,4.76l-6.39,6c-4.3-2.77-6.51-3.17-8.72-3.17a7.34,7.34,0,0,0-2.67.45c-1.1.36-1.68,1-1.68,1.58,0,1.23,2.09,1.82,5.46,2.36.34.09.75.09,1.16.18a37.32,37.32,0,0,1,7.84,2h-.06c4.19,1.81,6.39,4.67,6.39,8.2a8.12,8.12,0,0,1-2.2,5.66,14.42,14.42,0,0,1-5.52,3.45,18.85,18.85,0,0,1-7.32,1.22A25.73,25.73,0,0,1,839.34,630.74Z"/><rect class="cls-1" x="866.65" y="602.76" width="20.15" height="4.6"/><rect class="cls-1" x="866.65" y="612.19" width="20.15" height="4.6"/><rect class="cls-1" x="866.65" y="621.62" width="20.15" height="4.6"/><rect class="cls-1" x="414.39" y="602.76" width="20.15" height="4.6"/><rect class="cls-1" x="414.39" y="612.19" width="20.15" height="4.6"/><rect class="cls-1" x="414.39" y="621.62" width="20.15" height="4.6"/></svg>